<?xml version="1.0" encoding="UTF-8"?>
<svg xmlns="http://www.w3.org/2000/svg" id="Livello_2" data-name="Livello 2" viewBox="0 0 386.75 216">
  <g id="Title">
    <g>
      <path d="M214.39,105.79l1.76-3.9c1.89,1.38,4.7,2.34,7.39,2.34,3.07,0,4.32-1.02,4.32-2.4,0-4.19-13.02-1.31-13.02-9.63,0-3.81,3.07-6.98,9.44-6.98,2.82,0,5.7.67,7.78,1.98l-1.6,3.94c-2.08-1.18-4.22-1.76-6.21-1.76-3.07,0-4.25,1.15-4.25,2.56,0,4.13,13.02,1.28,13.02,9.5,0,3.74-3.1,6.94-9.5,6.94-3.55,0-7.14-1.06-9.12-2.59Z" fill="#4256a2"></path>
      <path d="M257.71,103.2h-10.4l-1.98,4.8h-5.31l9.98-22.4h5.12l10.01,22.4h-5.44l-1.98-4.8ZM256.08,99.26l-3.55-8.58-3.55,8.58h7.1Z" fill="#4256a2"></path>
      <path d="M273.88,85.6h5.18v18.17h11.23v4.22h-16.41v-22.4Z" fill="#4256a2"></path>
      <path d="M299.12,98.14v-12.54h5.18v12.35c0,4.26,1.86,6.02,4.99,6.02s4.99-1.76,4.99-6.02v-12.35h5.12v12.54c0,6.59-3.78,10.24-10.14,10.24s-10.14-3.65-10.14-10.24Z" fill="#4256a2"></path>
      <path d="M335.19,89.83h-7.17v-4.22h19.52v4.22h-7.17v18.17h-5.18v-18.17Z" fill="#4256a2"></path>
      <path d="M374.07,103.84v4.16h-17.34v-22.4h16.93v4.16h-11.77v4.86h10.4v4.03h-10.4v5.18h12.19Z" fill="#4256a2"></path>
      <path d="M318.74,139.55c0,3.78-2.91,7.23-9.28,7.23-3.14,0-6.37-.86-8.54-2.4l2.02-3.97c1.7,1.28,4.06,2.02,6.4,2.02,2.59,0,4.19-1.06,4.19-2.88,0-1.7-1.25-2.75-4.19-2.75h-2.37v-3.42l4.61-5.22h-9.54v-4.16h15.68v3.36l-5.06,5.76c4.03.64,6.08,3.14,6.08,6.43Z" fill="#4565ad"></path>
      <path d="M346.03,139.33c0,4.58-3.74,7.46-8.48,7.46-6.18,0-10.02-3.87-10.02-11.1,0-7.74,4.67-12.06,11.42-12.06,2.37,0,4.67.54,6.24,1.54l-1.92,3.81c-1.25-.83-2.69-1.12-4.19-1.12-3.74,0-6.14,2.21-6.3,6.5,1.31-1.31,3.2-1.98,5.54-1.98,4.32,0,7.71,2.75,7.71,6.98ZM341.01,139.58c0-2.05-1.5-3.36-3.81-3.36s-3.87,1.41-3.87,3.36,1.44,3.33,3.94,3.33c2.21,0,3.74-1.28,3.74-3.33Z" fill="#4565ad"></path>
      <path d="M354.32,135.2c0-7.39,4.1-11.58,9.6-11.58s9.6,4.19,9.6,11.58-4.06,11.58-9.6,11.58-9.6-4.19-9.6-11.58ZM368.31,135.2c0-5.09-1.79-7.2-4.38-7.2s-4.35,2.11-4.35,7.2,1.79,7.2,4.35,7.2,4.38-2.11,4.38-7.2Z" fill="#4565ad"></path>
    </g>
    <path d="M385.91,151.69c0,3.78-2.94,6.74-6.73,6.74s-6.69-2.96-6.69-6.71,2.91-6.71,6.72-6.71,6.69,2.89,6.69,6.67ZM384.81,151.69c0-3.19-2.36-5.62-5.59-5.62s-5.64,2.49-5.64,5.66,2.39,5.66,5.6,5.66,5.62-2.51,5.62-5.7ZM381.16,152.9l1.67,2.56h-1.63l-1.48-2.28h-1.69v2.28h-1.63v-7.49h3.12c1.98,0,3.15,1.03,3.15,2.6,0,1.12-.53,1.92-1.5,2.32ZM379.41,151.91c1.06,0,1.67-.49,1.67-1.33s-.61-1.31-1.67-1.31h-1.41v2.64h1.41Z" fill="#4565ad"></path>
  </g>
  <g id="Logo_Mark" data-name="Logo Mark">
    <path id="Background" d="M163.3,64.35c-10.7-8.69-22.65-13.1-35.53-13.1-8.28,0-16.51,1.88-23.57,4.89-8.27,3.53-17.55,3.53-25.82,0-7.06-3.01-15.29-4.89-23.57-4.89-12.88,0-24.83,4.41-35.53,13.1-23.62,19.19-25.74,52.86-5.29,83.78,8.14,12.32,21.49,26.16,38.18,40.12.67.56,1.63.66,2.39.22,19-10.87,40.14-27.54,51.52-38.99.9-.91.76-2.41-.29-3.15l-11.75-8.28c-3.53-2.48-8.24-2.42-11.71.14-6.48,4.79-14.11,9.68-22.11,14.24-.81.46-1.84.32-2.51-.34-8.15-8.1-13.84-14.86-17.91-21.02-8.64-13.06-11.58-29.77.23-41.48,11.49-11.39,27.46-8.16,39.01-1.51,7.6,4.37,16.92,4.37,24.52,0,11.55-6.65,27.51-9.88,39,1.51,11.82,11.71,8.71,28.31.23,41.48-11.27,17.51-37.24,43.03-75.25,66.02-1.26.76-1.36,2.55-.19,3.43,7.19,5.38,14.55,10.42,21.81,14.88,1.31.8,2.96.8,4.27,0,29.88-18.33,61.51-46.61,75.16-67.27,20.45-30.92,18.32-64.59-5.29-83.78Z" fill="#4565ad"></path>
    <path id="Dot" d="M116.15,24.86c0,12.77-9.63,23.29-22.02,24.69-.93.12-1.88.17-2.84.17-13.73,0-24.86-11.13-24.86-24.86S77.56,0,91.29,0c.96,0,1.9.05,2.83.17,12.4,1.4,22.03,11.92,22.03,24.69Z" fill="#4565ad"></path>
    <path d="M94.13,49.55c-1.86-7.93-2.84-16.19-2.84-24.69s.98-16.76,2.83-24.69c12.4,1.4,22.03,11.92,22.03,24.69s-9.63,23.29-22.02,24.69Z" fill="#4256a2"></path>
    <path d="M177.67,130.66c-10.44-2.12-20.34-5.74-29.45-10.64,3.64-10.58,3.01-21.83-5.67-30.43-9.58-9.49-22.26-8.82-32.9-4.49-5.52-8.19-9.95-17.17-13.06-26.75,2.59-.42,5.15-1.16,7.61-2.21,7.06-3.01,15.29-4.89,23.57-4.89,12.88,0,24.83,4.41,35.53,13.1,19.21,15.61,24.19,40.81,14.37,66.31Z" fill="#4256a2"></path>
  </g>
</svg>
